<svg width="20" height="20" viewBox="0 0 20 20" fill="none" xmlns="http://www.w3.org/2000/svg">
<g opacity="0.6">
<path fill-rule="evenodd" clip-rule="evenodd" d="M7.16297 5.0267C7.13746 5.0267 7.11194 5.02989 7.08642 5.03627C4.71801 5.6192 2.79138 8.18538 2.79138 10.7563C2.79138 13.9908 5.42295 16.6223 8.65818 16.6223C11.5744 16.6223 14.0114 14.545 14.4532 11.6822C14.4564 11.6583 14.4676 11.5889 14.4022 11.5115C14.34 11.439 14.2411 11.3959 14.1374 11.3959C13.0122 11.3959 12.1534 11.4214 11.4827 11.4405C9.85913 11.4892 9.18769 11.5075 8.52421 11.0155C7.52422 10.2747 7.43969 9.00196 7.43969 5.25876C7.43969 5.19177 7.41098 5.13595 7.35356 5.0913C7.30013 5.04903 7.23235 5.0267 7.16297 5.0267ZM8.65818 17.8185C4.76346 17.8185 1.59521 14.6503 1.59521 10.7563C1.59521 7.66864 3.93013 4.58093 6.80014 3.8744C7.2483 3.76515 7.72996 3.86722 8.092 4.14951C8.43729 4.42064 8.63585 4.82495 8.63585 5.25876C8.63585 8.75555 8.75388 9.69654 9.23633 10.0546C9.55291 10.2882 9.98672 10.2859 11.4484 10.2452C12.1279 10.2252 12.9979 10.1997 14.1374 10.1997C14.592 10.1997 15.0202 10.3943 15.3105 10.7332C15.58 11.0482 15.698 11.4597 15.6358 11.8648C15.1031 15.3137 12.1685 17.8185 8.65818 17.8185Z" fill="black"/>
<mask id="mask0_66_738" style="mask-type:alpha" maskUnits="userSpaceOnUse" x="9" y="0" width="10" height="10">
<path fill-rule="evenodd" clip-rule="evenodd" d="M9.94739 0.797852H18.2559V9.003H9.94739V0.797852Z" fill="white"/>
</mask>
<g mask="url(#mask0_66_738)">
<path fill-rule="evenodd" clip-rule="evenodd" d="M11.1729 1.99504C11.0851 4.0038 11.2151 6.59869 11.2757 7.6266C11.2789 7.688 11.3236 7.73266 11.3842 7.73585C12.204 7.78289 15.0285 7.91368 17.0596 7.61463C17.0644 6.49502 16.298 4.97669 15.1441 3.82358C13.9607 2.64177 12.5604 1.99504 11.1904 1.99504H11.1729ZM13.8076 9.00299C12.763 9.00299 11.8435 8.96072 11.3148 8.93042C10.6497 8.89134 10.1202 8.36104 10.082 7.69597C10.0198 6.64175 9.88499 3.96313 9.98068 1.89137C10.007 1.2893 10.4934 0.810038 11.0883 0.799672C12.7925 0.75023 14.5508 1.5413 15.9894 2.97749C17.3913 4.3786 18.2813 6.2199 18.2558 7.66886C18.2462 8.23425 17.8355 8.70634 17.2805 8.79007C16.1976 8.95354 14.9296 9.00299 13.8076 9.00299Z" fill="black"/>
</g>
</g>
</svg>
