<svg width="16" height="17" viewBox="0 0 16 17" fill="none" xmlns="http://www.w3.org/2000/svg">
<mask id="mask0_66_679" style="mask-type:alpha" maskUnits="userSpaceOnUse" x="0" y="0" width="16" height="17">
<path fill-rule="evenodd" clip-rule="evenodd" d="M0.5 0.750122H15.8748V16.8789H0.5V0.750122Z" fill="white"/>
</mask>
<g mask="url(#mask0_66_679)">
<path fill-rule="evenodd" clip-rule="evenodd" d="M9.28763 11.4684C10.1906 11.4684 10.9256 12.1982 10.9256 13.0952V15.4022C10.9256 15.5949 11.0801 15.7494 11.2781 15.7539H12.7076C13.8341 15.7539 14.7499 14.8494 14.7499 13.7379V7.19494C14.7446 6.81244 14.5624 6.45244 14.2496 6.21319L9.30488 2.26969C8.64113 1.74394 7.71263 1.74394 7.04663 2.27119L2.13563 6.21169C1.81088 6.45844 1.62863 6.81844 1.62488 7.20769V13.7379C1.62488 14.8494 2.54063 15.7539 3.66713 15.7539H5.11013C5.31338 15.7539 5.47838 15.5927 5.47838 15.3947C5.47838 15.3512 5.48363 15.3077 5.49263 15.2664V13.0952C5.49263 12.2034 6.22313 11.4744 7.11938 11.4684H9.28763ZM12.7076 16.8789H11.2646C10.4381 16.8594 9.80063 16.2107 9.80063 15.4022V13.0952C9.80063 12.8184 9.57038 12.5934 9.28763 12.5934H7.12313C6.84638 12.5949 6.61763 12.8207 6.61763 13.0952V15.3947C6.61763 15.4509 6.61013 15.5049 6.59438 15.5559C6.51338 16.2984 5.87888 16.8789 5.11013 16.8789H3.66713C1.92038 16.8789 0.499878 15.4697 0.499878 13.7379V7.20244C0.507378 6.45694 0.850878 5.77444 1.44413 5.32519L6.34538 1.39144C7.42463 0.536438 8.92838 0.536438 10.0054 1.38994L14.9419 5.32744C15.5216 5.76919 15.8651 6.45019 15.8749 7.18669V13.7379C15.8749 15.4697 14.4544 16.8789 12.7076 16.8789Z" fill="black"/>
</g>
</svg>
