<svg width="20" height="20" viewBox="0 0 20 20" fill="none" xmlns="http://www.w3.org/2000/svg">
<g opacity="0.6">
<mask id="mask0_66_703" style="mask-type:alpha" maskUnits="userSpaceOnUse" x="2" y="1" width="15" height="18">
<path fill-rule="evenodd" clip-rule="evenodd" d="M2.50024 1.6763H16.7076V18.2171H2.50024V1.6763Z" fill="white"/>
</mask>
<g mask="url(#mask0_66_703)">
<path fill-rule="evenodd" clip-rule="evenodd" d="M6.31011 2.92569C4.92959 2.92569 3.78319 4.04377 3.7507 5.42262V14.3331C3.71987 15.7602 4.84461 16.9358 6.25762 16.9675H12.9761C14.3666 16.91 15.468 15.7544 15.458 14.3381V6.9481L11.5964 2.92569H6.32011H6.31011ZM6.32029 18.2175H6.22947C4.12829 18.17 2.45534 16.4221 2.50116 14.3201V5.40794C2.54949 3.34092 4.25659 1.6763 6.30862 1.6763H6.32279H11.8632C12.0331 1.6763 12.1956 1.74545 12.3139 1.86792L16.5338 6.26441C16.6454 6.38022 16.7079 6.53602 16.7079 6.69682V14.3334C16.7229 16.4238 15.0949 18.1317 13.0013 18.2167L6.32029 18.2175Z" fill="black"/>
</g>
<path fill-rule="evenodd" clip-rule="evenodd" d="M16.0791 7.4856H13.7838C12.2591 7.48143 11.0194 6.23838 11.0194 4.7154V2.29179C11.0194 1.94687 11.2993 1.66693 11.6443 1.66693C11.9892 1.66693 12.2691 1.94687 12.2691 2.29179V4.7154C12.2691 5.55187 12.9498 6.23338 13.7854 6.23588H16.0791C16.424 6.23588 16.7039 6.51582 16.7039 6.86074C16.7039 7.20566 16.424 7.4856 16.0791 7.4856Z" fill="black"/>
<path fill-rule="evenodd" clip-rule="evenodd" d="M11.4884 13.4215H6.98948C6.64456 13.4215 6.36462 13.1416 6.36462 12.7966C6.36462 12.4517 6.64456 12.1718 6.98948 12.1718H11.4884C11.8334 12.1718 12.1133 12.4517 12.1133 12.7966C12.1133 13.1416 11.8334 13.4215 11.4884 13.4215Z" fill="black"/>
<path fill-rule="evenodd" clip-rule="evenodd" d="M9.78496 10.2946H6.98893C6.64401 10.2946 6.36407 10.0146 6.36407 9.66972C6.36407 9.3248 6.64401 9.04486 6.98893 9.04486H9.78496C10.1299 9.04486 10.4098 9.3248 10.4098 9.66972C10.4098 10.0146 10.1299 10.2946 9.78496 10.2946Z" fill="black"/>
</g>
</svg>
