<svg width="20" height="20" viewBox="0 0 20 20" fill="none" xmlns="http://www.w3.org/2000/svg">
<path fill-rule="evenodd" clip-rule="evenodd" d="M9.56543 13.8968C9.23529 13.8968 8.96735 13.6289 8.96735 13.2988V11.2756C8.96735 10.9455 9.23529 10.6776 9.56543 10.6776C9.89557 10.6776 10.1635 10.9455 10.1635 11.2756V13.2988C10.1635 13.6289 9.89557 13.8968 9.56543 13.8968Z" fill="black"/>
<mask id="mask0_66_724" style="mask-type:alpha" maskUnits="userSpaceOnUse" x="1" y="3" width="17" height="9">
<path fill-rule="evenodd" clip-rule="evenodd" d="M1.59503 3.65231H17.5358V11.8748H1.59503V3.65231Z" fill="white"/>
</mask>
<g mask="url(#mask0_66_724)">
<path fill-rule="evenodd" clip-rule="evenodd" d="M2.7912 9.0853C4.68593 10.1148 7.07507 10.6786 9.5615 10.6786C12.0527 10.6786 14.4443 10.1148 16.3398 9.0853V6.69137C16.3398 5.67463 15.5176 4.84848 14.5057 4.84848H4.6333C3.61735 4.84848 2.7912 5.67144 2.7912 6.6834V9.0853ZM9.5615 11.8748C6.73456 11.8748 4.00969 11.1906 1.89088 9.94973C1.70747 9.84288 1.59503 9.64671 1.59503 9.43379V6.6834C1.59503 5.01196 2.95786 3.65231 4.6333 3.65231H14.5057C16.1771 3.65231 17.5359 5.01515 17.5359 6.69138V9.43379C17.5359 9.64671 17.4227 9.84288 17.2401 9.94973C15.1213 11.1906 12.394 11.8748 9.5615 11.8748Z" fill="black"/>
</g>
<mask id="mask1_66_724" style="mask-type:alpha" maskUnits="userSpaceOnUse" x="6" y="1" width="7" height="4">
<path fill-rule="evenodd" clip-rule="evenodd" d="M6.17627 1.59506H12.9545V4.84537H6.17627V1.59506Z" fill="white"/>
</mask>
<g mask="url(#mask1_66_724)">
<path fill-rule="evenodd" clip-rule="evenodd" d="M12.3565 4.84536C12.0263 4.84536 11.7584 4.57741 11.7584 4.24727V3.95541C11.7584 3.31346 11.2361 2.79114 10.5941 2.79114H8.53671C7.89476 2.79114 7.37244 3.31346 7.37244 3.95541V4.24727C7.37244 4.57741 7.1045 4.84536 6.77435 4.84536C6.44421 4.84536 6.17627 4.57741 6.17627 4.24727V3.95541C6.17627 2.65398 7.23528 1.59497 8.53671 1.59497H10.5941C11.8955 1.59497 12.9545 2.65398 12.9545 3.95541V4.24727C12.9545 4.57741 12.6866 4.84536 12.3565 4.84536Z" fill="black"/>
</g>
<path fill-rule="evenodd" clip-rule="evenodd" d="M14.1904 17.3366H4.94008C3.28538 17.3366 1.89225 16.044 1.76705 14.3933L1.61553 12.3925C1.59081 12.0631 1.83802 11.7752 2.16737 11.7505C2.49831 11.7386 2.78379 11.9722 2.80931 12.3024L2.96003 14.3024C3.03818 15.3326 3.90739 16.1405 4.94008 16.1405H14.1904C15.2231 16.1405 16.0931 15.3326 16.1705 14.3024L16.322 12.3024C16.3475 11.9722 16.6402 11.7378 16.964 11.7505C17.2933 11.7752 17.5397 12.0631 17.515 12.3925L17.3635 14.3933C17.2383 16.044 15.8451 17.3366 14.1904 17.3366Z" fill="black"/>
</svg>
