<svg width="20" height="20" viewBox="0 0 20 20" fill="none" xmlns="http://www.w3.org/2000/svg">
<g opacity="0.6">
<mask id="mask0_66_764" style="mask-type:alpha" maskUnits="userSpaceOnUse" x="1" y="1" width="16" height="18">
<path fill-rule="evenodd" clip-rule="evenodd" d="M1.59479 1.59521H16.9726V18.1182H1.59479V1.59521Z" fill="white"/>
</mask>
<g mask="url(#mask0_66_764)">
<path fill-rule="evenodd" clip-rule="evenodd" d="M5.74301 13.9071C5.92562 13.9071 6.10823 13.9303 6.28684 13.9781C6.82589 14.1232 7.29396 14.4837 7.57146 14.9677C7.75167 15.2715 7.85135 15.6263 7.85454 15.9884C7.85454 16.5067 8.27078 16.9221 8.78272 16.9221H9.78186C10.2914 16.9221 10.7077 16.5091 10.71 15.9995C10.7069 15.4365 10.9269 14.9015 11.3296 14.4988C11.7267 14.1017 12.2817 13.8633 12.8367 13.8792C13.2003 13.888 13.5504 13.9861 13.859 14.1615C14.3031 14.4159 14.8701 14.2644 15.1269 13.8258L15.6563 12.9431C15.7744 12.7397 15.8086 12.4846 15.7456 12.2493C15.6834 12.0141 15.5272 11.81 15.3166 11.6896C14.8238 11.4057 14.4722 10.948 14.3263 10.3994C14.1819 9.8611 14.2609 9.27342 14.5424 8.78939C14.7258 8.47043 14.9945 8.20171 15.3166 8.01671C15.7488 7.76393 15.9003 7.19857 15.6492 6.7584C15.6388 6.74086 15.6292 6.72252 15.6213 6.70338L15.154 5.89322C14.8996 5.45066 14.3334 5.29836 13.8893 5.55114C13.4093 5.83501 12.8383 5.91635 12.2897 5.77202C11.7419 5.63008 11.2826 5.28321 10.9963 4.7936C10.8129 4.4874 10.7132 4.13096 10.71 3.76814C10.7172 3.49543 10.6215 3.25063 10.4477 3.07121C10.2747 2.89259 10.0315 2.79132 9.78186 2.79132H8.78272C8.53552 2.79132 8.30428 2.88781 8.12964 3.06164C7.95581 3.23627 7.86092 3.46832 7.86251 3.71551C7.84577 4.88132 6.89287 5.81986 5.73903 5.81986C5.36903 5.81587 5.01259 5.7162 4.7032 5.5312C4.26862 5.284 3.70086 5.43631 3.44649 5.87887L2.90665 6.76638C2.65945 7.19538 2.81096 7.76234 3.25113 8.0183C3.9042 8.39627 4.31168 9.10118 4.31168 9.85712C4.31168 10.6131 3.9042 11.3172 3.24953 11.6959C2.81176 11.9495 2.66025 12.5133 2.91383 12.9518L3.41699 13.8194C3.54138 14.0435 3.74472 14.2054 3.97996 14.2715C4.21439 14.3369 4.47275 14.309 4.68805 14.1894C5.00462 14.0036 5.37302 13.9071 5.74301 13.9071ZM9.78187 18.1182H8.78272C7.61133 18.1182 6.65843 17.1661 6.65843 15.9947C6.65684 15.8504 6.61538 15.7005 6.53803 15.5705C6.41283 15.352 6.21029 15.1957 5.97665 15.1335C5.74461 15.0713 5.49024 15.1056 5.28132 15.2268C4.78055 15.5059 4.19127 15.5737 3.65222 15.4222C3.11397 15.2699 2.64909 14.8999 2.37638 14.4095L1.878 13.5507C1.2951 12.5396 1.64197 11.2438 2.65148 10.6601C2.93775 10.495 3.11557 10.1872 3.11557 9.85712C3.11557 9.52699 2.93775 9.2184 2.65148 9.05333C1.64117 8.46644 1.2951 7.16747 1.8772 6.15636L2.41784 5.26885C2.99277 4.26891 4.29254 3.91646 5.30604 4.49856C5.44399 4.58069 5.5939 4.62216 5.7462 4.62375C6.24299 4.62375 6.65843 4.21389 6.66641 3.70993C6.66322 3.15414 6.88251 2.62068 7.282 2.21799C7.6831 1.8161 8.21576 1.59521 8.78272 1.59521H9.78187C10.3528 1.59521 10.9078 1.82965 11.3057 2.23712C11.7028 2.64699 11.9221 3.20916 11.9054 3.7793C11.9069 3.90769 11.9492 4.056 12.0258 4.18598C12.1525 4.40128 12.3527 4.55279 12.5903 4.61498C12.8279 4.67399 13.0767 4.6421 13.2881 4.5169C14.3087 3.934 15.6077 4.28326 16.1906 5.29597L16.6874 6.15636C16.7001 6.17949 16.7113 6.20182 16.7209 6.22494C17.2488 7.22249 16.8963 8.4784 15.9155 9.05174C15.7728 9.13387 15.6571 9.2487 15.5774 9.38745C15.4538 9.60195 15.4195 9.85712 15.4817 10.0916C15.5455 10.3308 15.6978 10.5293 15.9123 10.6521C16.3963 10.9304 16.7576 11.3993 16.9019 11.9407C17.0462 12.4814 16.9673 13.0683 16.6858 13.5523L16.1563 14.4342C15.5734 15.4358 14.2744 15.7826 13.2641 15.1989C13.1294 15.1216 12.9739 15.0793 12.8192 15.0753H12.8144C12.5839 15.0753 12.3471 15.1734 12.1749 15.3448C12.0002 15.5195 11.9046 15.7523 11.9061 15.9995C11.9006 17.1709 10.9477 18.1182 9.78187 18.1182Z" fill="black"/>
</g>
<path fill-rule="evenodd" clip-rule="evenodd" d="M9.28582 8.35251C8.45652 8.35251 7.78192 9.02791 7.78192 9.85721C7.78192 10.6865 8.45652 11.3603 9.28582 11.3603C10.1151 11.3603 10.7897 10.6865 10.7897 9.85721C10.7897 9.02791 10.1151 8.35251 9.28582 8.35251ZM9.28582 12.5564C7.79707 12.5564 6.58582 11.346 6.58582 9.85721C6.58582 8.36846 7.79707 7.1564 9.28582 7.1564C10.7746 7.1564 11.9858 8.36846 11.9858 9.85721C11.9858 11.346 10.7746 12.5564 9.28582 12.5564Z" fill="black"/>
</g>
</svg>
